<svg xmlns="http://www.w3.org/2000/svg" width="1200" height="630" viewBox="0 0 1200 630" role="img" aria-labelledby="t d">
  <title id="t">DotCore — .ядро</title>
  <desc id="d">.ядро — точка сборки проектов под единым брендом DotCore.</desc>
  <defs>
    <linearGradient id="bg" x1="0" y1="0" x2="1" y2="1">
      <stop offset="0" stop-color="#0c0d0f"/>
      <stop offset="0.5" stop-color="#14161a"/>
      <stop offset="1" stop-color="#0b0c0e"/>
    </linearGradient>
    <radialGradient id="glow" cx="50%" cy="30%" r="58%">
      <stop offset="0" stop-color="#ffffff" stop-opacity="0.08"/>
      <stop offset="1" stop-color="#ffffff" stop-opacity="0"/>
    </radialGradient>
  </defs>
  <rect width="1200" height="630" fill="url(#bg)"/>
  <rect width="1200" height="630" fill="url(#glow)"/>
  <g opacity="0.05" stroke="#ffffff" stroke-width="1">
    <path d="M0 210 H1200 M0 420 H1200 M300 0 V630 M600 0 V630 M900 0 V630"/>
  </g>
  <g stroke="#ffffff" stroke-linecap="round" stroke-opacity="0.5" stroke-width="3">
    <line x1="600" y1="175" x2="562" y2="131"/>
    <line x1="600" y1="175" x2="640" y2="135"/>
    <line x1="600" y1="175" x2="642" y2="219"/>
    <line x1="600" y1="175" x2="560" y2="217"/>
  </g>
  <g fill="#ffffff">
    <circle cx="600" cy="175" r="13"/>
    <circle cx="562" cy="131" r="7"/>
    <circle cx="640" cy="135" r="7"/>
    <circle cx="642" cy="219" r="7"/>
    <circle cx="560" cy="217" r="7"/>
  </g>
  <text x="600" y="400" text-anchor="middle" font-family="Inter, Arial, sans-serif" font-weight="800" font-size="140" fill="#ffffff" letter-spacing="-4">.ядро</text>
  <text x="600" y="462" text-anchor="middle" font-family="Inter, Arial, sans-serif" font-weight="600" font-size="32" fill="#a6a7ab">инженер полного цикла · от идеи до прода</text>
  <text x="600" y="542" text-anchor="middle" font-family="Inter, Arial, sans-serif" font-weight="500" font-size="22" fill="#5a5c63">DotSound · DotLearn · DotAgents · DotWorkBot · DotMathBot</text>
</svg>
