<svg xmlns="http://www.w3.org/2000/svg" width="1600" height="900" viewBox="0 0 1600 900" role="img" aria-labelledby="title desc">
  <title id="title">DotSound project preview</title>
  <desc id="desc">A dark glass interface preview with audio waveform, storage nodes, and compute worker flow.</desc>
  <defs>
    <linearGradient id="bg" x1="0" y1="0" x2="1" y2="1">
      <stop offset="0" stop-color="#050505"/>
      <stop offset="0.48" stop-color="#101719"/>
      <stop offset="1" stop-color="#071013"/>
    </linearGradient>
    <radialGradient id="glow" cx="68%" cy="24%" r="58%">
      <stop offset="0" stop-color="#67e8f9" stop-opacity="0.28"/>
      <stop offset="0.48" stop-color="#67e8f9" stop-opacity="0.08"/>
      <stop offset="1" stop-color="#67e8f9" stop-opacity="0"/>
    </radialGradient>
    <filter id="softShadow" x="-20%" y="-20%" width="140%" height="140%">
      <feDropShadow dx="0" dy="34" stdDeviation="38" flood-color="#000" flood-opacity="0.48"/>
    </filter>
    <linearGradient id="glass" x1="0" y1="0" x2="0" y2="1">
      <stop offset="0" stop-color="#ffffff" stop-opacity="0.13"/>
      <stop offset="0.38" stop-color="#ffffff" stop-opacity="0.035"/>
      <stop offset="1" stop-color="#ffffff" stop-opacity="0.015"/>
    </linearGradient>
  </defs>
  <rect width="1600" height="900" fill="url(#bg)"/>
  <rect width="1600" height="900" fill="url(#glow)"/>
  <g opacity="0.42">
    <path d="M0 708 C210 650 298 734 476 682 S780 542 988 600 1324 750 1600 620" fill="none" stroke="#67e8f9" stroke-width="2"/>
    <path d="M0 748 C260 692 354 784 536 718 S804 612 998 652 1324 800 1600 688" fill="none" stroke="#ffffff" stroke-opacity="0.16" stroke-width="2"/>
  </g>
  <g filter="url(#softShadow)">
    <rect x="142" y="128" width="560" height="644" rx="44" fill="#101112" stroke="#ffffff" stroke-opacity="0.14"/>
    <rect x="168" y="154" width="508" height="592" rx="32" fill="url(#glass)" stroke="#ffffff" stroke-opacity="0.08"/>
    <rect x="208" y="198" width="178" height="18" rx="9" fill="#ffffff" fill-opacity="0.72"/>
    <rect x="208" y="232" width="336" height="12" rx="6" fill="#ffffff" fill-opacity="0.22"/>
    <rect x="208" y="298" width="428" height="154" rx="28" fill="#67e8f9" fill-opacity="0.09" stroke="#67e8f9" stroke-opacity="0.26"/>
    <g transform="translate(238 346)" fill="#67e8f9">
      <rect x="0" y="40" width="12" height="44" rx="6" opacity="0.35"/>
      <rect x="28" y="18" width="12" height="86" rx="6" opacity="0.72"/>
      <rect x="56" y="0" width="12" height="122" rx="6" opacity="0.9"/>
      <rect x="84" y="32" width="12" height="64" rx="6" opacity="0.45"/>
      <rect x="112" y="12" width="12" height="98" rx="6" opacity="0.78"/>
      <rect x="140" y="48" width="12" height="36" rx="6" opacity="0.32"/>
      <rect x="168" y="24" width="12" height="78" rx="6" opacity="0.64"/>
      <rect x="196" y="4" width="12" height="112" rx="6" opacity="0.86"/>
      <rect x="224" y="38" width="12" height="54" rx="6" opacity="0.4"/>
      <rect x="252" y="20" width="12" height="86" rx="6" opacity="0.7"/>
      <rect x="280" y="50" width="12" height="32" rx="6" opacity="0.35"/>
      <rect x="308" y="14" width="12" height="94" rx="6" opacity="0.75"/>
      <rect x="336" y="30" width="12" height="66" rx="6" opacity="0.48"/>
    </g>
    <rect x="208" y="500" width="214" height="12" rx="6" fill="#ffffff" fill-opacity="0.42"/>
    <rect x="208" y="536" width="390" height="10" rx="5" fill="#ffffff" fill-opacity="0.16"/>
    <rect x="208" y="564" width="318" height="10" rx="5" fill="#ffffff" fill-opacity="0.12"/>
    <rect x="208" y="632" width="152" height="48" rx="24" fill="#ffffff" fill-opacity="0.82"/>
    <rect x="384" y="632" width="168" height="48" rx="24" fill="#ffffff" fill-opacity="0.08" stroke="#ffffff" stroke-opacity="0.18"/>
  </g>
  <g filter="url(#softShadow)" stroke="#ffffff" stroke-opacity="0.16">
    <rect x="862" y="178" width="230" height="118" rx="28" fill="#101112"/>
    <rect x="1180" y="178" width="230" height="118" rx="28" fill="#101112"/>
    <rect x="862" y="392" width="230" height="118" rx="28" fill="#101112"/>
    <rect x="1180" y="392" width="230" height="118" rx="28" fill="#101112"/>
    <rect x="1008" y="606" width="256" height="118" rx="28" fill="#101112"/>
  </g>
  <g font-family="Inter, Arial, sans-serif" fill="#ffffff">
    <text x="900" y="232" font-size="34" font-weight="700">Backend Hub</text>
    <text x="1218" y="232" font-size="34" font-weight="700">PostgreSQL</text>
    <text x="900" y="446" font-size="34" font-weight="700">MinIO</text>
    <text x="1218" y="446" font-size="34" font-weight="700">Search</text>
    <text x="1046" y="660" font-size="34" font-weight="700">ASR Worker</text>
    <text x="900" y="265" font-size="18" fill="#9ca3af">API, auth, queue</text>
    <text x="1218" y="265" font-size="18" fill="#9ca3af">metadata</text>
    <text x="900" y="479" font-size="18" fill="#9ca3af">audio objects</text>
    <text x="1218" y="479" font-size="18" fill="#9ca3af">lyrics index</text>
    <text x="1046" y="693" font-size="18" fill="#9ca3af">Demucs + Whisper</text>
  </g>
  <g stroke="#67e8f9" stroke-width="3" stroke-linecap="round" opacity="0.58">
    <path d="M1092 237 H1180"/>
    <path d="M977 296 V392"/>
    <path d="M1092 451 H1180"/>
    <path d="M1092 510 L1118 606"/>
    <path d="M1264 510 L1192 606"/>
  </g>
  <g font-family="Inter, Arial, sans-serif">
    <text x="142" y="92" font-size="28" fill="#67e8f9" font-weight="700">.sound</text>
    <text x="142" y="838" font-size="58" fill="#ffffff" font-weight="800">Ad-free music platform</text>
    <text x="142" y="876" font-size="22" fill="#a3a3a3">Telegram Mini App, HLS streaming, auto-lyrics pipeline</text>
  </g>
</svg>
