<svg xmlns="http://www.w3.org/2000/svg" width="1200" height="630" viewBox="0 0 1200 630" role="img" aria-labelledby="t d">
  <title id="t">DotLearn — .учёба</title>
  <desc id="d">AI-extensible learning workbench that runs code in the browser.</desc>
  <defs>
    <linearGradient id="bg" x1="0" y1="0" x2="1" y2="1">
      <stop offset="0" stop-color="#0a0b0d"/>
      <stop offset="0.5" stop-color="#14161a"/>
      <stop offset="1" stop-color="#0b0c0e"/>
    </linearGradient>
    <radialGradient id="glow" cx="78%" cy="22%" r="60%">
      <stop offset="0" stop-color="#ffffff" stop-opacity="0.13"/>
      <stop offset="0.5" stop-color="#ffffff" stop-opacity="0.04"/>
      <stop offset="1" stop-color="#ffffff" stop-opacity="0"/>
    </radialGradient>
  </defs>
  <rect width="1200" height="630" fill="url(#bg)"/>
  <rect width="1200" height="630" fill="url(#glow)"/>
  <g opacity="0.05" stroke="#ffffff" stroke-width="1">
    <path d="M0 210 H1200 M0 420 H1200 M300 0 V630 M600 0 V630 M900 0 V630"/>
  </g>
  <svg x="96" y="118" width="120" height="120" viewBox="0 0 48 48">
    <g fill="none" stroke="#f3f3f1" stroke-width="2.6" stroke-linecap="round" stroke-linejoin="round">
      <path d="M5 19 L24 10 L43 19 L24 28 Z"/>
      <path d="M13 22.5 V31 q11 6 22 0 V22.5"/>
      <path d="M43 19 V29"/>
      <circle cx="43" cy="31.5" r="1.6" fill="#f3f3f1" stroke="none"/>
    </g>
  </svg>
  <text x="94" y="392" font-family="Inter, Arial, sans-serif" font-size="116" font-weight="800" fill="#f3f3f1" letter-spacing="-3">.учёба</text>
  <text x="100" y="452" font-family="Inter, Arial, sans-serif" font-size="34" font-weight="700" fill="#f3f3f1">DotLearn</text>
  <text x="100" y="496" font-family="Inter, Arial, sans-serif" font-size="26" fill="#a6a7ab">AI-extensible learning workbench · code in the browser</text>
  <text x="96" y="566" font-family="Inter, Arial, sans-serif" font-size="22" font-weight="600" fill="#5a5c63">.ядро · DotCore</text>
</svg>
