<svg xmlns="http://www.w3.org/2000/svg" width="1600" height="900" viewBox="0 0 1600 900" role="img" aria-labelledby="title desc">
  <title id="title">DotMathBot project preview</title>
  <desc id="desc">A dark glass Telegram bot preview with arithmetic cards, progress, and leaderboard cues.</desc>
  <defs>
    <linearGradient id="bg" x1="0" y1="0" x2="1" y2="1">
      <stop offset="0" stop-color="#060606"/>
      <stop offset="0.5" stop-color="#17130a"/>
      <stop offset="1" stop-color="#100d08"/>
    </linearGradient>
    <radialGradient id="glow" cx="30%" cy="18%" r="62%">
      <stop offset="0" stop-color="#fbbf24" stop-opacity="0.3"/>
      <stop offset="0.5" stop-color="#fbbf24" stop-opacity="0.08"/>
      <stop offset="1" stop-color="#fbbf24" stop-opacity="0"/>
    </radialGradient>
    <filter id="softShadow" x="-20%" y="-20%" width="140%" height="140%">
      <feDropShadow dx="0" dy="34" stdDeviation="38" flood-color="#000" flood-opacity="0.5"/>
    </filter>
    <linearGradient id="glass" x1="0" y1="0" x2="0" y2="1">
      <stop offset="0" stop-color="#ffffff" stop-opacity="0.12"/>
      <stop offset="0.4" stop-color="#ffffff" stop-opacity="0.035"/>
      <stop offset="1" stop-color="#ffffff" stop-opacity="0.012"/>
    </linearGradient>
  </defs>
  <rect width="1600" height="900" fill="url(#bg)"/>
  <rect width="1600" height="900" fill="url(#glow)"/>
  <g opacity="0.11" stroke="#ffffff" stroke-width="1">
    <path d="M0 180 H1600M0 300 H1600M0 420 H1600M0 540 H1600M0 660 H1600M0 780 H1600"/>
    <path d="M160 0 V900M320 0 V900M480 0 V900M640 0 V900M800 0 V900M960 0 V900M1120 0 V900M1280 0 V900M1440 0 V900"/>
  </g>
  <g filter="url(#softShadow)">
    <rect x="148" y="116" width="470" height="668" rx="46" fill="#101010" stroke="#ffffff" stroke-opacity="0.14"/>
    <rect x="176" y="146" width="414" height="608" rx="30" fill="url(#glass)" stroke="#ffffff" stroke-opacity="0.08"/>
    <rect x="220" y="188" width="102" height="16" rx="8" fill="#ffffff" fill-opacity="0.72"/>
    <rect x="220" y="220" width="242" height="10" rx="5" fill="#ffffff" fill-opacity="0.18"/>
    <rect x="220" y="286" width="326" height="150" rx="30" fill="#fbbf24" fill-opacity="0.1" stroke="#fbbf24" stroke-opacity="0.3"/>
    <text x="266" y="378" fill="#ffffff" font-size="74" font-family="Inter, Arial, sans-serif" font-weight="800">8 x 7</text>
    <text x="442" y="378" fill="#fbbf24" font-size="74" font-family="Inter, Arial, sans-serif" font-weight="800">?</text>
    <g transform="translate(220 486)" font-family="Inter, Arial, sans-serif">
      <rect x="0" y="0" width="150" height="58" rx="18" fill="#ffffff" fill-opacity="0.82"/>
      <text x="54" y="38" font-size="28" font-weight="800" fill="#111111">56</text>
      <rect x="176" y="0" width="150" height="58" rx="18" fill="#ffffff" fill-opacity="0.08" stroke="#ffffff" stroke-opacity="0.18"/>
      <text x="230" y="38" font-size="28" font-weight="800" fill="#ffffff">54</text>
      <rect x="0" y="82" width="150" height="58" rx="18" fill="#ffffff" fill-opacity="0.08" stroke="#ffffff" stroke-opacity="0.18"/>
      <text x="54" y="120" font-size="28" font-weight="800" fill="#ffffff">64</text>
      <rect x="176" y="82" width="150" height="58" rx="18" fill="#ffffff" fill-opacity="0.08" stroke="#ffffff" stroke-opacity="0.18"/>
      <text x="230" y="120" font-size="28" font-weight="800" fill="#ffffff">48</text>
    </g>
    <rect x="220" y="684" width="326" height="12" rx="6" fill="#ffffff" fill-opacity="0.12"/>
    <rect x="220" y="684" width="214" height="12" rx="6" fill="#fbbf24" fill-opacity="0.8"/>
  </g>
  <g filter="url(#softShadow)" font-family="Inter, Arial, sans-serif">
    <rect x="790" y="160" width="520" height="164" rx="32" fill="#101010" stroke="#ffffff" stroke-opacity="0.13"/>
    <rect x="790" y="368" width="520" height="164" rx="32" fill="#101010" stroke="#ffffff" stroke-opacity="0.13"/>
    <rect x="790" y="576" width="520" height="164" rx="32" fill="#101010" stroke="#ffffff" stroke-opacity="0.13"/>
    <text x="842" y="226" font-size="40" font-weight="800" fill="#ffffff">Practice modes</text>
    <text x="842" y="274" font-size="24" fill="#a3a3a3">classic, sprint, mistakes, mixed</text>
    <text x="842" y="434" font-size="40" font-weight="800" fill="#ffffff">Daily schedule</text>
    <text x="842" y="482" font-size="24" fill="#a3a3a3">APScheduler reminders survive restart</text>
    <text x="842" y="642" font-size="40" font-weight="800" fill="#ffffff">Leaderboard</text>
    <text x="842" y="690" font-size="24" fill="#a3a3a3">points, accuracy, streaks</text>
    <g fill="#fbbf24">
      <circle cx="1234" cy="242" r="9"/>
      <circle cx="1268" cy="242" r="9" opacity="0.62"/>
      <circle cx="1302" cy="242" r="9" opacity="0.32"/>
      <rect x="1198" y="431" width="104" height="18" rx="9" opacity="0.86"/>
      <rect x="1198" y="461" width="66" height="18" rx="9" opacity="0.44"/>
      <path d="M1206 674 h110" stroke="#fbbf24" stroke-width="14" stroke-linecap="round"/>
      <path d="M1206 708 h72" stroke="#fbbf24" stroke-width="14" stroke-linecap="round" opacity="0.48"/>
    </g>
  </g>
  <g font-family="Inter, Arial, sans-serif">
    <text x="148" y="86" font-size="28" fill="#fbbf24" font-weight="700">.math</text>
    <text x="148" y="840" font-size="58" fill="#ffffff" font-weight="800">Telegram math trainer</text>
    <text x="148" y="878" font-size="22" fill="#a3a3a3">3 difficulty levels, 4 practice modes, bilingual flow</text>
  </g>
</svg>
