<svg xmlns="http://www.w3.org/2000/svg" width="1200" height="630" viewBox="0 0 1200 630" role="img" aria-labelledby="t d">
  <title id="t">DotMathBot — .матем</title>
  <desc id="d">Mental-arithmetic trainer in Telegram: 7 operation types, bilingual.</desc>
  <defs>
    <linearGradient id="bg" x1="0" y1="0" x2="1" y2="1">
      <stop offset="0" stop-color="#060606"/>
      <stop offset="0.5" stop-color="#17130a"/>
      <stop offset="1" stop-color="#100d08"/>
    </linearGradient>
    <radialGradient id="glow" cx="78%" cy="22%" r="60%">
      <stop offset="0" stop-color="#fbbf24" stop-opacity="0.28"/>
      <stop offset="0.5" stop-color="#fbbf24" stop-opacity="0.07"/>
      <stop offset="1" stop-color="#fbbf24" stop-opacity="0"/>
    </radialGradient>
  </defs>
  <rect width="1200" height="630" fill="url(#bg)"/>
  <rect width="1200" height="630" fill="url(#glow)"/>
  <g opacity="0.05" stroke="#ffffff" stroke-width="1">
    <path d="M0 210 H1200 M0 420 H1200 M300 0 V630 M600 0 V630 M900 0 V630"/>
  </g>
  <svg x="96" y="118" width="132" height="132" viewBox="0 0 48 48" fill="none" stroke="#fbbf24" stroke-width="2.4" stroke-linecap="round" stroke-linejoin="round">
    <path d="M13 7 V19 M7 13 H19"/>
    <path d="M29 13 H41"/>
    <path d="M8 30 L18 40 M18 30 L8 40"/>
    <path d="M29 35 H41"/>
    <circle cx="35" cy="29.5" r="1.4" fill="#fbbf24" stroke="none"/>
    <circle cx="35" cy="40.5" r="1.4" fill="#fbbf24" stroke="none"/>
  </svg>
  <text x="94" y="392" font-family="Inter, Arial, sans-serif" font-size="120" font-weight="800" fill="#fbbf24">.матем</text>
  <text x="100" y="456" font-family="Inter, Arial, sans-serif" font-size="34" font-weight="700" fill="#ffffff">DotMathBot</text>
  <text x="100" y="500" font-family="Inter, Arial, sans-serif" font-size="27" fill="#a3a3a3">Mental-arithmetic trainer · 7 operation types · ru/en</text>
  <text x="96" y="566" font-family="Inter, Arial, sans-serif" font-size="22" font-weight="600" fill="#5a5a5a">.ядро · DotCore</text>
</svg>
