<svg xmlns="http://www.w3.org/2000/svg" width="1200" height="630" viewBox="0 0 1200 630" role="img" aria-labelledby="t d">
  <title id="t">DotTraceIP — .след</title>
  <desc id="d">Async bulk IP analysis: geolocation, ASN/BGP, reputation.</desc>
  <defs>
    <linearGradient id="bg" x1="0" y1="0" x2="1" y2="1">
      <stop offset="0" stop-color="#0a0b0d"/>
      <stop offset="0.5" stop-color="#14161a"/>
      <stop offset="1" stop-color="#0b0c0e"/>
    </linearGradient>
    <radialGradient id="glow" cx="78%" cy="22%" r="60%">
      <stop offset="0" stop-color="#ffffff" stop-opacity="0.13"/>
      <stop offset="0.5" stop-color="#ffffff" stop-opacity="0.04"/>
      <stop offset="1" stop-color="#ffffff" stop-opacity="0"/>
    </radialGradient>
  </defs>
  <rect width="1200" height="630" fill="url(#bg)"/>
  <rect width="1200" height="630" fill="url(#glow)"/>
  <g opacity="0.05" stroke="#ffffff" stroke-width="1">
    <path d="M0 210 H1200 M0 420 H1200 M300 0 V630 M600 0 V630 M900 0 V630"/>
  </g>
  <svg x="96" y="118" width="120" height="120" viewBox="0 0 48 48">
    <g fill="none" stroke="#f3f3f1" stroke-width="2.6" stroke-linecap="round" stroke-linejoin="round">
      <path d="M15.5 32.5 a12 12 0 1 1 17 0"/>
      <path d="M19.5 28.5 a6.5 6.5 0 1 1 9 0"/>
      <path d="M24 24 L37 13"/>
      <circle cx="24" cy="24" r="2.6" fill="#f3f3f1" stroke="none"/>
      <circle cx="37" cy="13" r="3" fill="#f3f3f1" stroke="none"/>
    </g>
  </svg>
  <text x="94" y="392" font-family="Inter, Arial, sans-serif" font-size="116" font-weight="800" fill="#f3f3f1" letter-spacing="-3">.след</text>
  <text x="100" y="452" font-family="Inter, Arial, sans-serif" font-size="34" font-weight="700" fill="#f3f3f1">DotTraceIP</text>
  <text x="100" y="496" font-family="Inter, Arial, sans-serif" font-size="26" fill="#a6a7ab">Async bulk IP intel · geo · ASN/BGP · reputation</text>
  <text x="96" y="566" font-family="Inter, Arial, sans-serif" font-size="22" font-weight="600" fill="#5a5c63">.ядро · DotCore</text>
</svg>
